<svg xmlns="http://www.w3.org/2000/svg" viewBox="0 0 571.37 442.8"><defs><style>.cls-1{fill:#fff;}</style></defs><g id="Layer_2" data-name="Layer 2"><g id="Layer_1-2" data-name="Layer 1"><path class="cls-1" d="M393.43,392A301.48,301.48,0,0,0,442,368.23c-.65-.59-1.08-1-1.55-1.42-2.89-2.33-5.83-4.59-8.67-7a2.93,2.93,0,0,0-3.62-.44,340.45,340.45,0,0,1-85.72,27.28c-9.82,1.74-19.72,3-29.66,3.82a324.52,324.52,0,0,1-39.32.86,323.58,323.58,0,0,1-39.51-4,344.16,344.16,0,0,1-46.58-10.91,347.71,347.71,0,0,1-44.45-17.14,2.81,2.81,0,0,0-3.44.44c-2.86,2.35-5.8,4.62-8.69,6.93-.49.39-.91.86-1.61,1.52a303.54,303.54,0,0,0,48.1,23.62c-1,5.67-24.13,44.07-30.6,50.95-1.18-.36-2.46-.73-3.74-1.14A467.34,467.34,0,0,1,86,419.29a396.43,396.43,0,0,1-37-19.62Q35.66,391.57,22.6,383c-6.36-4.19-12.44-8.81-18.67-13.21a3.59,3.59,0,0,1-1.72-3q-.6-10.54-1.38-21.09C-.24,331.5-.07,317.24.2,303c.2-10.3,1.19-20.59,1.92-30.89.84-11.87,2.49-23.65,4.43-35.39q3.59-21.84,9.24-43.25,4.91-18.63,11.27-36.8,8.07-23,18.33-45.15c7-15.09,14.58-29.85,23-44.16C74,57.78,80,48.41,85.85,38.93a7.64,7.64,0,0,1,3.47-3,473.08,473.08,0,0,1,49.91-19.68,456,456,0,0,1,60-15.37c1.4-.26,2.81-.46,4.2-.79a1.75,1.75,0,0,1,2.23,1.07c2.73,5.41,5.57,10.76,8.24,16.2,1.92,3.9,3.63,7.9,5.42,11.86.84,1.85,1,2,3.1,1.7,4.52-.59,9-1.29,13.55-1.79,5.45-.61,10.9-1.17,16.37-1.57,6.6-.48,13.21-.9,19.83-1.11s13.12-.21,19.67-.15c5.2,0,10.4.2,15.59.51q9.58.57,19.16,1.47c5.53.52,11,1.21,16.56,1.85,1.91.22,3.8.58,5.71.8s2.05.12,2.89-1.69q5-10.66,10-21.31c1-2.12,2.16-4.18,3.3-6.23C366,0,366.15-.13,368.09.23c4.69.86,9.39,1.71,14.06,2.68,12.78,2.65,25.4,5.91,37.9,9.66,11.61,3.48,23.11,7.29,34.35,11.84,9.31,3.78,18.5,7.84,27.76,11.75a5.79,5.79,0,0,1,2.65,2.36C494,52.45,502.64,66.71,510.6,81.38a512.23,512.23,0,0,1,27.93,60.3,490.26,490.26,0,0,1,16.74,51.86c3.07,11.72,5.77,23.53,7.85,35.47q2.36,13.58,4.09,27.25c1,8.26,1.83,16.56,2.48,24.86.52,6.45.67,12.93,1,19.41.14,3.27.21,6.54.34,9.81.12,2.91.44,5.83.37,8.73-.11,5.26-.45,10.51-.67,15.77-.08,1.71,0,3.42-.12,5.13-.42,7.46-.88,14.92-1.34,22.38-.08,1.42-.34,2.84-.37,4.26a3.72,3.72,0,0,1-1.72,3.22c-4.89,3.45-9.7,7-14.61,10.44a463.88,463.88,0,0,1-44.22,27.24,443.31,443.31,0,0,1-57.94,26.4c-7.55,2.79-15.2,5.32-22.81,8-.47.16-.94.32-1.42.46-2,.59-2,.63-3.17-1-3.94-5.77-7.94-11.5-11.71-17.38A349.22,349.22,0,0,1,394,393.43C393.8,393.06,393.69,392.66,393.43,392ZM139.24,245.52c-.14,5.83,1.31,13.49,4.13,20.88,4.72,12.37,12.38,22.4,23.89,29.19a44.6,44.6,0,0,0,34.59,5.09c12-3,21.3-9.94,28.49-19.86,7.69-10.6,11.22-22.61,11.79-35.57a65.57,65.57,0,0,0-1.28-15.5,59.16,59.16,0,0,0-15-29.52,50.17,50.17,0,0,0-15.13-11,45.45,45.45,0,0,0-30.42-3.37c-11.66,2.62-21,9.09-28.17,18.5C143.32,215.86,139.24,229,139.24,245.52Zm292.58-3.82a59.07,59.07,0,0,0-5.26-24.87c-4.74-10.73-11.86-19.49-22-25.43-13.77-8-28.2-9.06-42.87-2.71C350.29,193.6,342.1,202.1,336.39,213a66.62,66.62,0,0,0-3.85,51.82c4.55,12.84,12.16,23.35,23.95,30.47a44.59,44.59,0,0,0,35.35,5.35c12.44-3.19,22-10.54,29.16-21C428.49,268.56,431.89,256.29,431.82,241.7Z"/></g></g></svg>