<svg xmlns="http://www.w3.org/2000/svg" viewBox="0 0 534.13 533.4"><defs><style>.cls-1{fill:#fff;}</style></defs><g id="Layer_2" data-name="Layer 2"><g id="Layer_1-2" data-name="Layer 1"><path class="cls-1" d="M534.13,272.87c-1.07,38.25-1.33,76.54-3.44,114.73-2.25,40.76-15.75,77.12-46.81,105.48-23.92,21.85-52.56,33.21-84.17,36.39-25,2.51-50.23,3.41-75.37,3.64-46.87.43-93.77.49-140.63-.57-22.81-.52-46.09-1.55-68.25-6.46C51.7,512,11.44,466.36,4,401,1.1,375.05.48,348.74.22,322.58c-.46-46.46-.14-92.94.46-139.4.33-25.76.93-51.64,8.42-76.64C26.34,49.05,65.38,15.16,123.87,5.65c28.3-4.6,57.46-4.87,86.26-5.3,46.45-.7,92.94-.23,139.4.38,26.78.36,53.67,1,79.61,9.15,56.3,17.75,89.29,56.65,98.52,114.07,4.64,28.91,4.29,58.68,5.4,88.1.76,20.23.15,40.53.15,60.79l.92,0M485.91,267l-1.5,0c0-27,.51-54-.17-81-.46-18.37-1.2-36.93-4.23-55C474.1,95.6,455,69.64,420.14,58.13a146.57,146.57,0,0,0-42-7.67c-59.75-1.32-119.52-1.71-179.28-1.76A563.6,563.6,0,0,0,138.2,52c-46.56,5-77.72,33.68-85,80-3.68,23.32-4.16,47.26-4.54,70.95-.68,42.36-.54,84.75-.05,127.12.25,21.66,1.15,43.39,3.29,64.94,4.59,46.15,34.27,78.39,79.83,85.21,23,3.44,46.45,4.15,69.72,4.51,43.39.67,86.8.53,130.19.05,21.06-.24,42.17-1.22,63.11-3.3,20.46-2,39.36-9,55.26-22.9,22.18-19.4,31-45,32.46-73.14,2-39.43,2.4-78.95,3.47-118.43"/><path class="cls-1" d="M403.64,266.67c-.2,76.26-61.33,137.07-137.75,137-75.15,0-136.43-61.79-136.24-137.28.19-75.81,61.88-137.21,137.4-136.75,75.7.45,136.79,61.72,136.59,137m-48.43,0c0-48.84-39.5-88.58-88-88.59-49.35,0-89.24,39.32-89.22,88,0,50.44,39.38,89.26,90.44,89.2,47.33-.06,86.78-40.36,86.74-88.59"/><path class="cls-1" d="M408.72,156.47a32.06,32.06,0,0,1,0-64.12,32.06,32.06,0,1,1,0,64.12"/></g></g></svg>