<svg xmlns="http://www.w3.org/2000/svg" viewBox="0 0 663.28 596.01"><defs><style>.cls-1{fill:#fff;}</style></defs><g id="Layer_2" data-name="Layer 2"><g id="Layer_1-2" data-name="Layer 1"><path class="cls-1" d="M217.8,44.5l80.53,21.29c0-11.45,0-21.64,0-31.84.05-11,3.71-20.3,12.59-27.22C319.56,0,329.63-2,339.27,2.12c11.89,5.05,20,14.44,20.29,28.27.34,14.48.31,29,0,43.45-.13,5.92,2,8.58,7.08,12.28A461.46,461.46,0,0,1,410,122.34c27.43,25.71,51.82,54,69.84,87.34,22.27,41.25,23.46,81.93-1.9,122.49a353.6,353.6,0,0,1-64.71,76.93,21.63,21.63,0,0,1-12.42,4.95c-13.15.63-26.35.23-41.17.23v40.89c0,18.29,0,18.29,18.56,18.29,12,0,23.95-.35,35.9.08,16.67.59,30.92-4.91,43-16,7.42-6.81,15-13.59,21.52-21.19,8.35-9.71,18.55-15.1,30.77-18.51C556.4,404.75,603.16,391,650,377.59c10.54-3,10.82-1.61,12.46,9.18,3.46,22.83-3.82,36.78-26.49,45.47-30.1,11.53-46,38.52-62.37,64.57-13.19,21-27,41.77-42.35,61.14C511.32,583,485.41,596.34,451.91,596c-90.07-.89-180.15-.26-270.23-.32A179.87,179.87,0,0,1,7,460.61c-3.19-12.43-4.93-25.28-6.63-38-1.6-12,1.82-15.49,13.55-15.5q69.91,0,139.84,0c13.05,0,13.05.07,13.35,12.93.66,28.25,22.81,52,51.27,53.13,24.21,1,48.49.13,72.74.4,6.22.07,7.32-3,7.26-8.16-.15-14.17-.33-28.35.07-42.51.19-6.57-1.95-8.82-8.6-8.71q-29.76.52-59.52,0c-4.05-.07-8.06-2.07-12.09-3.18,1.37-3.59,2.31-7.43,4.18-10.74,15-26.5,31.52-52.23,44.93-79.5,18.6-37.85,16.94-78.16,8.23-118.29-11-50.7-30.23-98.37-54.78-144-2-3.65-3.21-7.69-4.79-11.54Z"/><path class="cls-1" d="M116.43,348.21c-21.71,0-43.43.05-65.14,0-11.61,0-13.46-2.89-7.42-12.46q30.65-48.64,61.7-97,36.51-57.19,73.22-114.25c2-3.12,5.64-5.2,8.52-7.77,2.36,3.12,5.72,5.9,6.91,9.42,9.76,28.79,20,57.47,28.4,86.67,11.92,41.25,1.75,79-19.2,115.5-8.61,15-17.39,22.16-35.12,20.33C151.18,346.83,133.73,348.21,116.43,348.21Z"/></g></g></svg>