<svg xmlns="http://www.w3.org/2000/svg" viewBox="0 0 596.89 489.01"><defs><style>.cls-1{fill:#fff;}</style></defs><g id="Layer_2" data-name="Layer 2"><g id="Layer_1-2" data-name="Layer 1"><path class="cls-1" d="M577.79,11.45c2.21,9.22-4.13,15.74-7.92,22.69C561.39,49.68,549.3,62.35,535.31,74c20.68.1,39.56-7.48,61.58-15.46-14.1,22.23-29.39,39.29-47.66,53.2-9.56,7.28-12.74,14.66-12.89,26.71C534.51,294.77,430.69,446,263.17,481.29,173.78,500.15,77.64,484.38,0,434.74c64.21,3.79,122.86-10.93,177.27-51.86-28.15-2.33-51.25-10.15-71.14-25.7-19.63-15.33-34-34.54-42.07-59.54,16.85-.36,33.19,3,49.69-2.78-65-28.8-95.38-68.64-92.59-122,16.27,6.79,32.34,13.36,53,14.15-26.59-20.62-43.38-45-50-75.7-6.63-30.91-1.94-60,14.21-88.54,25.13,30,53,55,85,75.22,47.15,29.8,98.64,46.77,154,52.78,9.95,1.08,14,.83,12.76-12.21-7-72,38.65-128.91,110.09-137.62,35.56-4.34,67.37,6.79,94.06,30.58,7,6.26,12.86,7,21.42,4.76,21.83-5.59,41.91-15.31,62.2-24.62Z"/></g></g></svg>